<svg
  fill="none"
  height="24"
  viewBox="0 0 20 20"
  width="24"
  xmlns="http://www.w3.org/2000/svg"
>
  <path
    d="M2.35598 5.53793C2.19282 5.15721 1.75191 4.98085 1.37119 5.14402C0.990464 5.30718 0.814101 5.74809 0.977267 6.12881L2.35598 5.53793ZM12.9893 11.1073L12.7146 10.4094L12.9893 11.1073ZM7.63927 11.5163C7.86518 11.1691 7.76686 10.7046 7.41968 10.4787C7.07249 10.2527 6.6079 10.3511 6.382 10.6983L7.63927 11.5163ZM5.20465 12.5077C4.97875 12.8549 5.07707 13.3194 5.42425 13.5453C5.77144 13.7713 6.23603 13.6729 6.46193 13.3257L5.20465 12.5077ZM19.0227 6.12881C19.1858 5.74809 19.0095 5.30718 18.6287 5.14402C18.248 4.98085 17.8071 5.15721 17.6439 5.53793L19.0227 6.12881ZM15.8333 9.27407L15.32 8.72722V8.72722L15.8333 9.27407ZM16.553 11.0544C16.8459 11.3473 17.3207 11.3473 17.6136 11.0544C17.9065 10.7615 17.9065 10.2866 17.6136 9.99374L16.553 11.0544ZM9.24996 13.75C9.24996 14.1643 9.58575 14.5 9.99996 14.5C10.4142 14.5 10.75 14.1643 10.75 13.75H9.24996ZM13.538 13.3257C13.7639 13.6729 14.2285 13.7713 14.5757 13.5453C14.9229 13.3194 15.0212 12.8549 14.7953 12.5077L13.538 13.3257ZM4.69696 9.8044C4.98985 9.51151 4.98985 9.03664 4.69696 8.74374C4.40406 8.45085 3.92919 8.45085 3.6363 8.74374L4.69696 9.8044ZM2.3863 9.99374C2.0934 10.2866 2.0934 10.7615 2.3863 11.0544C2.67919 11.3473 3.15406 11.3473 3.44696 11.0544L2.3863 9.99374ZM9.99996 10.9167C7.3594 10.9167 5.46129 9.60298 4.19539 8.2397C3.56266 7.5583 3.09842 6.87454 2.79287 6.36122C2.64051 6.10527 2.52878 5.89366 2.45626 5.74861C2.42003 5.67615 2.39367 5.62047 2.377 5.58439C2.36867 5.56635 2.36277 5.55322 2.35927 5.54536C2.35752 5.54143 2.35638 5.53881 2.35583 5.53756C2.35556 5.53693 2.35543 5.53665 2.35546 5.53671C2.35547 5.53674 2.35552 5.53686 2.35561 5.53706C2.35565 5.53716 2.35575 5.53738 2.35577 5.53743C2.35587 5.53767 2.35598 5.53793 1.66663 5.83337C0.977267 6.12881 0.977399 6.12912 0.97754 6.12945C0.9776 6.12959 0.977752 6.12994 0.977872 6.13022C0.978112 6.13078 0.978392 6.13143 0.97871 6.13216C0.979348 6.13364 0.980141 6.13547 0.981092 6.13764C0.982993 6.142 0.985522 6.14775 0.988682 6.15486C0.995002 6.16907 1.00385 6.1887 1.01525 6.21338C1.03805 6.26275 1.0711 6.3324 1.11462 6.41944C1.2016 6.5934 1.33076 6.83752 1.50393 7.12845C1.84942 7.70887 2.37476 8.48344 3.0962 9.26038C4.53863 10.8138 6.80718 12.4167 9.99996 12.4167V10.9167ZM12.7146 10.4094C11.9199 10.7222 11.0183 10.9167 9.99996 10.9167V12.4167C11.2148 12.4167 12.3023 12.1837 13.264 11.8052L12.7146 10.4094ZM6.382 10.6983L5.20465 12.5077L6.46193 13.3257L7.63927 11.5163L6.382 10.6983ZM18.3333 5.83337C17.6439 5.53793 17.644 5.53778 17.6441 5.53764C17.6441 5.5376 17.6441 5.53746 17.6442 5.53738C17.6442 5.53722 17.6443 5.53709 17.6443 5.53699C17.6444 5.53679 17.6445 5.53669 17.6445 5.5367C17.6445 5.53673 17.6443 5.53719 17.6439 5.53807C17.6431 5.53984 17.6416 5.54331 17.6393 5.54842C17.6347 5.55865 17.6271 5.57543 17.6165 5.59826C17.5952 5.64394 17.5617 5.71377 17.5158 5.80381C17.4239 5.98405 17.2826 6.24427 17.0901 6.55327C16.7036 7.17345 16.118 7.97822 15.32 8.72722L16.3466 9.82092C17.2641 8.95974 17.9285 8.04416 18.3631 7.34653C18.5812 6.99664 18.7433 6.69859 18.852 6.48529C18.9065 6.37856 18.9477 6.2928 18.976 6.23209C18.9901 6.20172 19.0011 6.1776 19.0088 6.16022C19.0127 6.15154 19.0158 6.14453 19.0181 6.13928C19.0193 6.13665 19.0202 6.13446 19.021 6.13271C19.0214 6.13184 19.0217 6.13108 19.022 6.13043C19.0221 6.1301 19.0222 6.1298 19.0223 6.12954C19.0224 6.1294 19.0225 6.12922 19.0225 6.12915C19.0226 6.12898 19.0227 6.12881 18.3333 5.83337ZM15.32 8.72722C14.6132 9.39068 13.7481 10.0026 12.7146 10.4094L13.264 11.8052C14.5097 11.3149 15.532 10.5855 16.3466 9.82092L15.32 8.72722ZM15.303 9.8044L16.553 11.0544L17.6136 9.99374L16.3636 8.74374L15.303 9.8044ZM9.24996 11.6667V13.75H10.75V11.6667H9.24996ZM12.3606 11.5163L13.538 13.3257L14.7953 12.5077L13.6179 10.6983L12.3606 11.5163ZM3.6363 8.74374L2.3863 9.99374L3.44696 11.0544L4.69696 9.8044L3.6363 8.74374Z"
    fill="currentColor"
  />
</svg>
